<svg xmlns="http://www.w3.org/2000/svg" viewBox="0 0 200 200" width="200" height="200" role="img" aria-label="Avatar placeholder">
  <defs>
    <linearGradient id="bg1" x1="0%" y1="0%" x2="100%" y2="100%">
      <stop offset="0%" style="stop-color:#e8ecf8"/>
      <stop offset="100%" style="stop-color:#d4daf0"/>
    </linearGradient>
  </defs>
  <circle cx="100" cy="100" r="100" fill="url(#bg1)"/>
  <ellipse cx="100" cy="155" rx="70" ry="45" fill="#3452ff" opacity="0.25"/>
  <ellipse cx="100" cy="95" rx="58" ry="68" fill="#f5d0b5"/>
  <ellipse cx="100" cy="108" rx="52" ry="54" fill="#f5d0b5"/>
  <path fill="#2a2419" d="M52 78c8-28 48-42 96-28 28 8 44 26 48 48 2 12-4 22-14 26-4-18-22-32-46-36-36-6-68 4-84 26z"/>
  <ellipse cx="78" cy="92" rx="6" ry="7" fill="#2a2419"/>
  <ellipse cx="122" cy="92" rx="6" ry="7" fill="#2a2419"/>
  <path fill="none" stroke="#c49a7a" stroke-width="3" stroke-linecap="round" d="M88 118q12 10 24 0"/>
  <path fill="#3452ff" d="M40 175c0-40 120-40 120 0v25H40z"/>
</svg>
