<svg xmlns="http://www.w3.org/2000/svg" viewBox="0 0 200 200" width="200" height="200" role="img" aria-label="Avatar placeholder">
  <defs>
    <linearGradient id="bg3" x1="0%" y1="0%" x2="100%" y2="100%">
      <stop offset="0%" style="stop-color:#f0f4fc"/>
      <stop offset="100%" style="stop-color:#e2e8f6"/>
    </linearGradient>
  </defs>
  <circle cx="100" cy="100" r="100" fill="url(#bg3)"/>
  <ellipse cx="100" cy="155" rx="70" ry="45" fill="#3452ff" opacity="0.22"/>
  <ellipse cx="100" cy="95" rx="58" ry="68" fill="#d4a574"/>
  <ellipse cx="100" cy="108" rx="52" ry="54" fill="#d4a574"/>
  <path fill="#2a1f14" d="M55 82c10-26 46-38 90-22 26 10 40 30 42 50 0 8-8 14-18 14-8-22-26-38-52-42-30-4-54 8-62 36z"/>
  <ellipse cx="78" cy="92" rx="6" ry="7" fill="#2a1f14"/>
  <ellipse cx="122" cy="92" rx="6" ry="7" fill="#2a1f14"/>
  <path fill="none" stroke="#a67c52" stroke-width="3" stroke-linecap="round" d="M86 118q14 12 28 0"/>
  <rect x="62" y="38" width="76" height="28" rx="8" fill="#3452ff" opacity="0.35"/>
  <rect x="70" y="46" width="60" height="12" rx="3" fill="#fff" opacity="0.9"/>
  <path fill="#2a2f35" d="M44 176c2-36 112-36 112 0v24H44z"/>
</svg>
